3DGaitModel2392_coordinates
version=1
nRows=28
nColumns=24
inDegrees=yes

# SIMM Motion File Header:
name 3DGaitModel2392_coordinates
datacolumns 24
datarows 28
otherdata 1
range 2.04982601 2.05468158
endheader
time pelvis_tilt pelvis_list pelvis_rotation pelvis_tx pelvis_ty pelvis_tz hip_flexion_r hip_adduction_r hip_rotation_r knee_angle_r ankle_angle_r subtalar_angle_r mtp_angle_r hip_flexion_l hip_adduction_l hip_rotation_l knee_angle_l ankle_angle_l subtalar_angle_l mtp_angle_l lumbar_extension lumbar_bending lumbar_rotation
2.04982601	0.00000000	0.00000000	-0.00000000	0.01526998	1.25332435	-0.00000000	-0.00000000	0.00000000	-0.00000000	4551.04016983	-76617.57699367	-0.00000000	0.00000000	-0.00000000	0.00000000	0.00000000	0.00000000	-0.00000000	-0.00000000	-0.00000000	-0.00000000	-0.00000000	-0.00000000
2.04998827	0.00000000	0.00000000	-0.00000000	0.01557776	1.25354918	-0.00000000	-0.00000000	0.00000000	-0.00000000	4551.39588519	-76627.95674611	-0.00000000	0.00000000	-0.00000000	0.00000000	0.00000000	0.00000000	-0.00000000	-0.00000000	-0.00000000	-0.00000000	-0.00000000	-0.00000000
2.05015053	0.00000000	0.00000000	-0.00000000	0.01590619	1.25376903	-0.00000000	-0.00000000	0.00000000	-0.00000000	4551.88889502	-76638.21467379	-0.00000000	0.00000000	-0.00000000	0.00000000	0.00000000	0.00000000	-0.00000000	-0.00000000	-0.00000000	-0.00000000	-0.00000000	-0.00000000
2.05031279	0.00000000	0.00000000	-0.00000000	0.01624992	1.25398855	-0.00000000	-0.00000000	0.00000000	-0.00000000	4552.52277009	-76648.41350329	-0.00000000	0.00000000	-0.00000000	0.00000000	0.00000000	0.00000000	-0.00000000	-0.00000000	-0.00000000	-0.00000000	-0.00000000	-0.00000000
2.05054248	0.00000000	0.00000000	-0.00000000	0.01675283	1.25430657	-0.00000000	-0.00000000	0.00000000	-0.00000000	4553.66291934	-76662.89650952	-0.00000000	0.00000000	-0.00000000	0.00000000	0.00000000	0.00000000	-0.00000000	-0.00000000	-0.00000000	-0.00000000	-0.00000000	-0.00000000
2.05081910	0.00000000	0.00000000	-0.00000000	0.01736605	1.25471427	-0.00000000	-0.00000000	0.00000000	-0.00000000	4555.41691606	-76680.71750637	-0.00000000	0.00000000	-0.00000000	0.00000000	0.00000000	0.00000000	-0.00000000	-0.00000000	-0.00000000	-0.00000000	-0.00000000	-0.00000000
2.05109572	0.00000000	0.00000000	-0.00000000	0.01796212	1.25516656	-0.00000000	-0.00000000	0.00000000	-0.00000000	4557.59607100	-76699.37574683	-0.00000000	0.00000000	-0.00000000	0.00000000	0.00000000	0.00000000	-0.00000000	-0.00000000	-0.00000000	-0.00000000	-0.00000000	-0.00000000
2.05129784	0.00000000	0.00000000	-0.00000000	0.01836694	1.25553724	-0.00000000	-0.00000000	0.00000000	-0.00000000	4559.46229759	-76713.78971724	-0.00000000	0.00000000	-0.00000000	0.00000000	0.00000000	0.00000000	-0.00000000	-0.00000000	-0.00000000	-0.00000000	-0.00000000	-0.00000000
2.05147904	0.00000000	0.00000000	-0.00000000	0.01869088	1.25590658	-0.00000000	-0.00000000	0.00000000	-0.00000000	4561.32581157	-76727.37820660	-0.00000000	0.00000000	-0.00000000	0.00000000	0.00000000	0.00000000	-0.00000000	-0.00000000	-0.00000000	-0.00000000	-0.00000000	-0.00000000
2.05164042	0.00000000	0.00000000	-0.00000000	0.01893450	1.25626954	-0.00000000	-0.00000000	0.00000000	-0.00000000	4563.11632292	-76739.98960883	-0.00000000	0.00000000	-0.00000000	0.00000000	0.00000000	0.00000000	-0.00000000	-0.00000000	-0.00000000	-0.00000000	-0.00000000	-0.00000000
2.05180179	0.00000000	0.00000000	-0.00000000	0.01912358	1.25666596	-0.00000000	-0.00000000	0.00000000	-0.00000000	4564.99001369	-76752.94025865	-0.00000000	0.00000000	-0.00000000	0.00000000	0.00000000	0.00000000	-0.00000000	-0.00000000	-0.00000000	-0.00000000	-0.00000000	-0.00000000
2.05196317	0.00000000	0.00000000	-0.00000000	0.01925006	1.25709310	-0.00000000	-0.00000000	0.00000000	-0.00000000	4566.88795758	-76765.98022296	-0.00000000	0.00000000	-0.00000000	0.00000000	0.00000000	0.00000000	-0.00000000	-0.00000000	-0.00000000	-0.00000000	-0.00000000	-0.00000000
2.05210814	0.00000000	0.00000000	-0.00000000	0.01930925	1.25749753	-0.00000000	-0.00000000	0.00000000	-0.00000000	4568.55918317	-76777.53131146	-0.00000000	0.00000000	-0.00000000	0.00000000	0.00000000	0.00000000	-0.00000000	-0.00000000	-0.00000000	-0.00000000	-0.00000000	-0.00000000
2.05225310	0.00000000	0.00000000	-0.00000000	0.01932119	1.25791518	-0.00000000	-0.00000000	0.00000000	-0.00000000	4570.15661943	-76788.75437491	-0.00000000	0.00000000	-0.00000000	0.00000000	0.00000000	0.00000000	-0.00000000	-0.00000000	-0.00000000	-0.00000000	-0.00000000	-0.00000000
2.05239806	0.00000000	0.00000000	-0.00000000	0.01929305	1.25834016	-0.00000000	-0.00000000	0.00000000	-0.00000000	4571.65403388	-76799.56093157	-0.00000000	0.00000000	-0.00000000	0.00000000	0.00000000	0.00000000	-0.00000000	-0.00000000	-0.00000000	-0.00000000	-0.00000000	-0.00000000
2.05254303	0.00000000	0.00000000	-0.00000000	0.01923278	1.25876781	-0.00000000	-0.00000000	0.00000000	-0.00000000	4573.03826898	-76809.93434217	-0.00000000	0.00000000	-0.00000000	0.00000000	0.00000000	0.00000000	-0.00000000	-0.00000000	-0.00000000	-0.00000000	-0.00000000	-0.00000000
2.05273172	0.00000000	0.00000000	-0.00000000	0.01911832	1.25932307	-0.00000000	-0.00000000	0.00000000	-0.00000000	4574.66413944	-76822.84238661	-0.00000000	0.00000000	-0.00000000	0.00000000	0.00000000	0.00000000	-0.00000000	-0.00000000	-0.00000000	-0.00000000	-0.00000000	-0.00000000
2.05295885	0.00000000	0.00000000	-0.00000000	0.01894434	1.25998314	-0.00000000	-0.00000000	0.00000000	-0.00000000	4576.35992806	-76837.65278598	-0.00000000	0.00000000	-0.00000000	0.00000000	0.00000000	0.00000000	-0.00000000	-0.00000000	-0.00000000	-0.00000000	-0.00000000	-0.00000000
2.05318597	0.00000000	0.00000000	-0.00000000	0.01874876	1.26062946	-0.00000000	-0.00000000	0.00000000	-0.00000000	4577.77944282	-76851.90402299	-0.00000000	0.00000000	-0.00000000	0.00000000	0.00000000	0.00000000	-0.00000000	-0.00000000	-0.00000000	-0.00000000	-0.00000000	-0.00000000
2.05341309	0.00000000	0.00000000	-0.00000000	0.01854750	1.26125871	-0.00000000	-0.00000000	0.00000000	-0.00000000	4578.93093713	-76865.83460117	-0.00000000	0.00000000	-0.00000000	0.00000000	0.00000000	0.00000000	-0.00000000	-0.00000000	-0.00000000	-0.00000000	-0.00000000	-0.00000000
2.05369158	0.00000000	0.00000000	-0.00000000	0.01831483	1.26200331	-0.00000000	-0.00000000	0.00000000	-0.00000000	4579.98544370	-76882.79221851	-0.00000000	0.00000000	-0.00000000	0.00000000	0.00000000	0.00000000	-0.00000000	-0.00000000	-0.00000000	-0.00000000	-0.00000000	-0.00000000
2.05389570	0.00000000	0.00000000	-0.00000000	0.01816984	1.26252817	-0.00000000	-0.00000000	0.00000000	-0.00000000	4580.51599154	-76895.31370228	-0.00000000	0.00000000	-0.00000000	0.00000000	0.00000000	0.00000000	-0.00000000	-0.00000000	-0.00000000	-0.00000000	-0.00000000	-0.00000000
2.05407749	0.00000000	0.00000000	-0.00000000	0.01807053	1.26297987	-0.00000000	-0.00000000	0.00000000	-0.00000000	4580.82832128	-76906.61683014	-0.00000000	0.00000000	-0.00000000	0.00000000	0.00000000	0.00000000	-0.00000000	-0.00000000	-0.00000000	-0.00000000	-0.00000000	-0.00000000
2.05425928	0.00000000	0.00000000	-0.00000000	0.01800928	1.26341679	-0.00000000	-0.00000000	0.00000000	-0.00000000	4581.01189835	-76918.08688086	-0.00000000	0.00000000	-0.00000000	0.00000000	0.00000000	0.00000000	-0.00000000	-0.00000000	-0.00000000	-0.00000000	-0.00000000	-0.00000000
2.05439524	0.00000000	0.00000000	-0.00000000	0.01799371	1.26373456	-0.00000000	-0.00000000	0.00000000	-0.00000000	4581.08647920	-76926.75821352	-0.00000000	0.00000000	-0.00000000	0.00000000	0.00000000	0.00000000	-0.00000000	-0.00000000	-0.00000000	-0.00000000	-0.00000000	-0.00000000
2.05449863	0.00000000	0.00000000	-0.00000000	0.01800118	1.26397175	-0.00000000	-0.00000000	0.00000000	-0.00000000	4581.12148008	-76933.38508846	-0.00000000	0.00000000	-0.00000000	0.00000000	0.00000000	0.00000000	-0.00000000	-0.00000000	-0.00000000	-0.00000000	-0.00000000	-0.00000000
2.05459011	0.00000000	0.00000000	-0.00000000	0.01802235	1.26417892	-0.00000000	-0.00000000	0.00000000	-0.00000000	4581.14627722	-76939.25446570	-0.00000000	0.00000000	-0.00000000	0.00000000	0.00000000	0.00000000	-0.00000000	-0.00000000	-0.00000000	-0.00000000	-0.00000000	-0.00000000
2.05468158	0.00000000	0.00000000	-0.00000000	0.01805730	1.26438410	-0.00000000	-0.00000000	0.00000000	-0.00000000	4581.17339413	-76945.11468436	-0.00000000	0.00000000	-0.00000000	0.00000000	0.00000000	0.00000000	-0.00000000	-0.00000000	-0.00000000	-0.00000000	-0.00000000	-0.00000000
